<svg width="58" height="57" viewBox="0 0 58 57" fill="none" xmlns="http://www.w3.org/2000/svg">
<circle cx="29" cy="20" r="19.5" stroke="#1877F2"/>
<path d="M45 20.0978C45 11.2073 37.8365 4 29 4C20.1635 4 13 11.2073 13 20.0978C13 28.1326 18.851 34.7924 26.5 36V24.751H22.4375V20.0978H26.5V16.5512C26.5 12.5167 28.8888 10.2882 32.5435 10.2882C34.294 10.2882 36.125 10.6026 36.125 10.6026V14.5642H34.1075C32.1199 14.5642 31.5 15.8051 31.5 17.0782V20.0978H35.9375L35.2281 24.751H31.5V36C39.149 34.7924 45 28.1327 45 20.0978Z" fill="#1877F2"/>
<path d="M0.957031 53V43.1357H6.94531V44.2432H2.1875V47.6338H6.55566V48.7275H2.1875V53H0.957031ZM9.76855 53.1367C8.35352 53.1367 7.40332 52.2822 7.40332 50.9902V50.9766C7.40332 49.7666 8.34668 49.0078 9.98047 48.9121L12.0176 48.7959V48.2012C12.0176 47.333 11.4502 46.8066 10.459 46.8066C9.54297 46.8066 8.96875 47.2441 8.83203 47.8799L8.81836 47.9414H7.66992L7.67676 47.8662C7.7793 46.6973 8.79785 45.7539 10.4727 45.7539C12.1543 45.7539 13.207 46.6631 13.207 48.085V53H12.0176V51.8447H11.9902C11.5732 52.624 10.7188 53.1367 9.76855 53.1367ZM8.62012 50.9902C8.62012 51.6738 9.18066 52.1045 10.0352 52.1045C11.1562 52.1045 12.0176 51.332 12.0176 50.2998V49.7188L10.1172 49.835C9.16699 49.8896 8.62012 50.3135 8.62012 50.9766V50.9902ZM17.6641 53.1367C15.6475 53.1367 14.3691 51.7012 14.3691 49.4385V49.4316C14.3691 47.1895 15.6748 45.7539 17.6504 45.7539C19.4209 45.7539 20.4668 46.9297 20.6172 48.1465L20.624 48.2012H19.4619L19.4482 48.1465C19.2705 47.4355 18.6963 46.8066 17.6504 46.8066C16.4131 46.8066 15.5859 47.832 15.5859 49.4453V49.4521C15.5859 51.1064 16.4336 52.084 17.6641 52.084C18.6348 52.084 19.2568 51.5371 19.4551 50.7441L19.4688 50.6895H20.6377L20.6309 50.7373C20.4395 52.0908 19.2705 53.1367 17.6641 53.1367ZM24.6572 53.1367C22.6133 53.1367 21.3828 51.708 21.3828 49.4727V49.4658C21.3828 47.2646 22.6406 45.7539 24.582 45.7539C26.5234 45.7539 27.7061 47.1963 27.7061 49.3291V49.7666H22.5859C22.6133 51.2295 23.4199 52.084 24.6846 52.084C25.5869 52.084 26.2227 51.6328 26.4277 51.0244L26.4482 50.9629H27.6172L27.6035 51.0312C27.3711 52.207 26.209 53.1367 24.6572 53.1367ZM24.5752 46.8066C23.543 46.8066 22.7363 47.5107 22.6064 48.8369H26.4961C26.3799 47.4561 25.6143 46.8066 24.5752 46.8066ZM32.4434 53.1367C31.4248 53.1367 30.6318 52.624 30.1875 51.7969H30.1602V53H28.9707V43.1357H30.1602V47.0801H30.1875C30.6318 46.2598 31.459 45.7539 32.4639 45.7539C34.248 45.7539 35.4648 47.1963 35.4648 49.4385V49.4453C35.4648 51.6875 34.2617 53.1367 32.4434 53.1367ZM32.2109 52.084C33.4688 52.084 34.248 51.0791 34.248 49.4453V49.4385C34.248 47.8184 33.4688 46.8066 32.2109 46.8066C31.0146 46.8066 30.1533 47.8525 30.1533 49.4385V49.4453C30.1533 51.0381 31.0078 52.084 32.2109 52.084ZM39.6074 53.1367C37.6318 53.1367 36.3125 51.708 36.3125 49.4453V49.4316C36.3125 47.1689 37.6387 45.7539 39.6006 45.7539C41.5625 45.7539 42.8955 47.1621 42.8955 49.4316V49.4453C42.8955 51.7148 41.5693 53.1367 39.6074 53.1367ZM39.6143 52.084C40.8652 52.084 41.6787 51.1133 41.6787 49.4453V49.4316C41.6787 47.7637 40.8584 46.8066 39.6006 46.8066C38.3633 46.8066 37.5293 47.7705 37.5293 49.4316V49.4453C37.5293 51.1201 38.3564 52.084 39.6143 52.084ZM47.0449 53.1367C45.0693 53.1367 43.75 51.708 43.75 49.4453V49.4316C43.75 47.1689 45.0762 45.7539 47.0381 45.7539C49 45.7539 50.333 47.1621 50.333 49.4316V49.4453C50.333 51.7148 49.0068 53.1367 47.0449 53.1367ZM47.0518 52.084C48.3027 52.084 49.1162 51.1133 49.1162 49.4453V49.4316C49.1162 47.7637 48.2959 46.8066 47.0381 46.8066C45.8008 46.8066 44.9668 47.7705 44.9668 49.4316V49.4453C44.9668 51.1201 45.7939 52.084 47.0518 52.084ZM51.6318 53V43.1357H52.8213V49.0283H52.8486L55.9658 45.8906H57.4082L54.3252 48.96L57.5039 53H56.123L53.4844 49.6846L52.8213 50.3203V53H51.6318Z" fill="black" fill-opacity="0.8"/>
</svg>
