<svg width="160" height="182" viewBox="0 0 160 182" fill="none" xmlns="http://www.w3.org/2000/svg">
<g clip-path="url(#clip0_101_1518)">
<path d="M76.4679 170.738L76.2649 166.172C76.2438 166.161 76.2226 166.15 76.2015 166.139C74.0254 164.997 71.5315 167.064 72.2266 169.421C72.8805 171.639 73.3199 174.03 74.5169 175.971C75.2242 177.098 76.1761 178.052 77.3021 178.762C78.4281 179.471 79.6994 179.918 81.0217 180.07L83.7863 181.763C84.1657 179.648 84.082 177.476 83.5412 175.396C83.0003 173.317 82.0151 171.38 80.6533 169.718C79.8802 168.793 78.9936 167.969 78.0146 167.266C77.3525 169.012 76.4679 170.738 76.4679 170.738Z" fill="#F2F2F2"/>
<path d="M51.716 124.4C46.3935 118.911 38.6803 115.763 30.5543 115.763L30.2408 115.763C24.8884 115.765 19.6315 114.346 15.0078 111.65L14.5267 111.369L14.9142 110.97C17.0122 108.799 18.764 106.319 20.1083 103.616C19.1535 104.506 18.0148 105.176 16.7727 105.577C15.5306 105.978 14.2155 106.102 12.9205 105.938C11.5532 105.775 10.2406 105.305 9.08114 104.562C7.92166 103.819 6.94541 102.824 6.2256 101.65C3.38547 97.0419 0 90.5033 0 85.5221C0.00442109 81.3117 0.885991 77.1485 2.58852 73.2977C4.29105 69.4469 6.77719 65.9931 9.88847 63.1564C11.8582 61.3803 13.4315 59.2091 14.5058 56.7842C15.5801 54.3593 16.1313 51.7353 16.1234 49.0831L16.1218 48.7056C16.1213 45.2139 16.548 41.7352 17.3924 38.3471L17.4782 38.0049L17.8302 38.0172C20.1002 38.0945 22.3714 37.9042 24.597 37.4503C22.5094 37.1943 20.4672 36.6511 18.5283 35.8362L18.1496 35.683L18.2782 35.295C27.1374 29.8097 47.1351 32.6503 58.7424 6.09348C68.1544 -15.4405 101.363 25.2092 101.363 48.7057C101.363 51.1032 98.9902 54.2715 100.766 55.8561C119.968 72.9864 106.719 83.9863 102.542 95.0549C101.551 97.6811 103.7 100.564 103.7 103.405C103.7 103.887 103.688 104.385 103.663 104.884L103.626 105.652L102.986 105.226C101.72 104.396 100.546 103.433 99.4841 102.354C100.585 104.888 101.104 107.636 101.003 110.397C100.901 113.158 100.182 115.862 98.898 118.308C96.8858 122.106 94.939 124.825 93.112 126.389C87.259 131.397 79.7138 133.981 72.0192 133.611C64.3246 133.242 57.0618 129.947 51.716 124.4Z" fill="#E6E6E6"/>
<path d="M83.8629 181.537C83.9937 181.537 84.1201 181.49 84.2189 181.404C84.3176 181.318 84.3822 181.2 84.4006 181.07C84.4237 180.908 86.6869 164.585 84.6543 142.892C82.7772 122.858 76.749 94.0016 58.6909 70.3024C58.6476 70.2455 58.5936 70.1977 58.5319 70.1617C58.4701 70.1257 58.4019 70.1022 58.331 70.0926C58.2602 70.083 58.1882 70.0874 58.1191 70.1057C58.0499 70.1239 57.9851 70.1556 57.9283 70.1989C57.8714 70.2423 57.8236 70.2964 57.7877 70.3582C57.7518 70.42 57.7284 70.4882 57.7189 70.5591C57.7093 70.6299 57.7139 70.7019 57.7322 70.771C57.7506 70.8401 57.7823 70.9049 57.8257 70.9617C75.7279 94.4562 81.7074 123.101 83.5713 142.994C85.5921 164.56 83.3467 180.756 83.3237 180.917C83.3128 180.994 83.3186 181.073 83.3407 181.147C83.3628 181.222 83.4007 181.291 83.4518 181.35C83.5029 181.409 83.5661 181.456 83.637 181.488C83.7079 181.521 83.7849 181.537 83.8629 181.537Z" fill="#3F3D56"/>
<path d="M69.1264 103.731C69.2412 103.731 69.3532 103.695 69.4462 103.627C69.5392 103.56 69.6084 103.465 69.644 103.356C69.6795 103.246 69.6795 103.129 69.6441 103.019C69.6086 102.91 69.5395 102.815 69.4465 102.747C69.381 102.7 62.7748 97.9397 52.8987 94.3236C43.769 90.9812 29.8858 87.951 15.5934 92.4998C15.5252 92.5213 15.462 92.5561 15.4073 92.6022C15.3526 92.6482 15.3075 92.7046 15.2746 92.768C15.2417 92.8315 15.2217 92.9008 15.2156 92.9721C15.2095 93.0433 15.2176 93.115 15.2393 93.1831C15.2609 93.2513 15.2958 93.3144 15.342 93.3691C15.3881 93.4237 15.4445 93.4687 15.508 93.5015C15.5716 93.5342 15.6409 93.5542 15.7122 93.5601C15.7834 93.5661 15.8551 93.5579 15.9232 93.5362C29.9228 89.0808 43.5543 92.0609 52.5247 95.3451C62.2598 98.9096 68.7427 103.581 68.8071 103.627C68.8998 103.695 69.0116 103.731 69.1264 103.731Z" fill="#3F3D56"/>
<path d="M94.0176 41.7365C94.0259 41.6219 93.9978 41.5077 93.9372 41.4101C93.8766 41.3125 93.7867 41.2366 93.6803 41.1932C93.5739 41.1499 93.4565 41.1414 93.345 41.1689C93.2334 41.1964 93.1335 41.2585 93.0594 41.3463C93.0072 41.4083 87.7838 47.6545 83.4658 57.2446C79.4746 66.1099 75.4525 79.7388 78.9602 94.3217C78.9939 94.4619 79.082 94.583 79.205 94.6583C79.328 94.7336 79.4758 94.7569 79.6161 94.7232C79.7563 94.6895 79.8774 94.6014 79.9527 94.4784C80.028 94.3554 80.0513 94.2076 80.0176 94.0673C76.5821 79.7832 80.536 66.4018 84.4577 57.6911C88.714 48.238 93.8397 42.1083 93.8909 42.0475C93.965 41.9599 94.0094 41.851 94.0176 41.7365Z" fill="#3F3D56"/>
<path d="M93.2815 70.7792C93.7404 74.4814 96.3056 77.5338 100.036 77.5338C101.828 77.5338 103.546 76.8222 104.812 75.5554C106.079 74.2887 106.791 72.5707 106.791 70.7792C106.791 67.0488 103.751 64.3695 100.036 64.0246C96.0948 63.6587 92.6924 66.0262 93.2815 70.7792Z" fill="#2F2E41"/>
<path d="M103.165 178.562L105.737 178.562L106.96 168.64L103.164 168.641L103.165 178.562Z" fill="#FFB6B6"/>
<path d="M103.074 181.245L110.984 181.245V181.145C110.984 180.329 110.66 179.545 110.082 178.968C109.505 178.391 108.722 178.066 107.905 178.066H107.905L106.46 176.97L103.765 178.067L103.074 178.067L103.074 181.245Z" fill="#2F2E41"/>
<path d="M93.0327 178.562L95.6049 178.562L96.8286 168.64L93.0322 168.641L93.0327 178.562Z" fill="#FFB6B6"/>
<path d="M92.9423 181.245L100.852 181.245V181.145C100.852 180.329 100.528 179.545 99.9504 178.968C99.373 178.391 98.5899 178.066 97.7734 178.066H97.7732L96.3284 176.97L93.6327 178.067L92.9422 178.067L92.9423 181.245Z" fill="#2F2E41"/>
<path d="M112.016 116.422L113.835 122.657L111.692 149.064C111.692 149.064 112.796 150.715 112.016 150.715C111.237 150.715 110.237 151.081 110.867 152.067C111.497 153.053 109.345 156.593 109.345 156.593L106.301 175.395L102.422 175.338C102.422 175.338 100.451 174.239 101.557 173.128C102.664 172.018 103.443 172.018 102.404 170.978C101.365 169.939 101.365 170.252 101.365 169.446C101.365 168.64 100.324 158.791 102.793 155.012L102.049 139.608L100.297 154.718L96.6885 174.875L92.9523 174.845C92.9523 174.845 91.2265 173.181 91.2297 171.95C91.2329 170.719 92.296 170.616 91.5046 169.888C90.7133 169.16 90.7133 157.972 93.0514 151.754C93.0514 151.754 94.3741 148.279 93.0485 147.089C91.7228 145.898 93.0468 144.536 93.0468 144.536C93.0468 144.536 95.1464 143.777 93.0449 141.59C90.9435 139.403 93.0336 123.938 93.0336 123.938C93.0336 123.938 90.7363 117.695 93.0629 115.24C95.3896 112.785 112.016 116.422 112.016 116.422Z" fill="#2F2E41"/>
<path d="M79.6268 127.165L82.8714 119.323L85.4278 120.744L83.884 128.72C84.0386 129.225 84.0492 129.764 83.9146 130.275C83.7799 130.786 83.5054 131.249 83.1219 131.613C82.7384 131.976 82.2611 132.226 81.7436 132.333C81.2261 132.44 80.689 132.401 80.1926 132.219C79.6963 132.038 79.2603 131.722 78.9338 131.306C78.6073 130.891 78.4032 130.392 78.3444 129.867C78.2857 129.342 78.3745 128.811 78.6011 128.333C78.8276 127.856 79.1829 127.451 79.6268 127.165Z" fill="#FFB6B6"/>
<path d="M134.072 65.1599L129.136 72.0619L126.968 70.0994L130.278 62.6803C130.242 62.1531 130.354 61.6262 130.601 61.159C130.848 60.6918 131.22 60.3027 131.676 60.0354C132.132 59.7682 132.654 59.6335 133.182 59.6464C133.71 59.6592 134.224 59.8192 134.667 60.1083C135.109 60.3974 135.462 60.8042 135.686 61.2829C135.91 61.7616 135.996 62.2933 135.934 62.8181C135.872 63.343 135.665 63.8402 135.336 64.2539C135.008 64.6676 134.57 64.9813 134.072 65.1599Z" fill="#FFB6B6"/>
<path d="M112.506 117.061C115.708 122.028 99.6124 128.331 93.4363 125.801C92.3548 125.358 88.6348 123.894 91.1776 121.865C93.7203 119.836 90.8828 119.55 90.8157 118.23C90.7708 117.346 91.4546 115.409 90.7412 115.492C90.0278 115.575 89.1929 114.354 90.7465 113.829C92.3001 113.303 90.7632 112.824 90.7768 112.325C90.9254 106.881 95.1023 98.2217 95.1023 98.2217L87.5758 117.461C87.5758 117.461 87.6314 120.79 86.6716 119.772C85.7118 118.755 85.7817 122.047 85.7817 122.047C85.7817 122.047 84.3545 123.043 85.1752 123.598C85.9959 124.152 84.2916 125.856 84.2916 125.856L80.3151 125.572C80.3151 125.572 80.3774 122.618 81.0563 121.965C81.7353 121.312 81.4018 120.284 81.4018 120.284C81.4018 120.284 83.1696 118.719 81.9844 117.448C80.4602 115.814 86.0175 88.2139 87.9353 88.4872C88.2064 87.1676 88.8372 85.9487 89.7578 84.9652C90.6785 83.9817 91.8531 83.2719 93.152 82.9143L97.4469 81.7317L98.2095 78.7058H104.257L105.311 80.6941L109.908 82.7689C110.774 81.547 111.421 80.2593 114.968 79.8419C114.968 79.8419 124.524 71.1475 124.057 70.4686C123.591 69.7898 125.072 68.2004 125.072 68.2004C125.072 68.2004 126.337 67.7863 125.623 67.5653C124.909 67.3442 126.258 66.8331 126.258 66.8331C126.258 66.8331 127.508 66.5047 126.919 66.0724C126.329 65.64 128.886 65.356 128.886 65.356L132.202 68.0622L131.532 69.1988C131.532 69.1988 131.941 70.7467 131.407 70.1816C130.874 69.6165 130.774 71.2564 130.774 71.2564C130.774 71.2564 130.501 73.0521 128.886 73.5931C127.27 74.1341 126.045 79.2738 126.045 79.2738C122.236 84.2274 117.739 88.0916 112.411 90.6354C114.488 93.0188 112.506 117.061 112.506 117.061Z" fill="#17586E"/>
<path d="M100.783 77.9349C104.091 77.9349 106.773 75.2533 106.773 71.9452C106.773 68.6372 104.091 65.9556 100.783 65.9556C97.4749 65.9556 94.7932 68.6372 94.7932 71.9452C94.7932 75.2533 97.4749 77.9349 100.783 77.9349Z" fill="#FFB6B6"/>
<path d="M94.5805 72.598C94.7701 73.8995 95.8794 75.7155 95.6196 75.7155C95.3599 75.7155 93.5127 70.3499 95.3599 70.0001C96.6997 69.7463 96.9991 69.9689 98.2513 69.4259L98.0747 69.5922C98.9034 70.1949 100.057 69.8234 101.003 69.4311C101.951 69.0414 103.102 68.6699 103.933 69.27C104.455 69.6467 104.676 70.3014 105.001 70.8574C105.325 71.4159 105.926 71.9433 106.544 71.7718C107.04 71.6342 107.326 71.0782 107.323 70.5638C107.321 70.0494 106.651 69.5601 106.876 69.0986C107.545 67.7309 106.944 66.7987 105.487 66.1551C104.957 66.0746 104.427 65.9923 103.897 65.9083C104.174 65.5237 104.511 65.1853 104.894 64.9055C104.732 64.4904 104.452 64.1319 104.089 63.8742C103.665 63.6222 103.141 63.6404 102.65 63.6663C101.553 63.7235 100.458 63.7806 99.3633 63.8378C98.5527 63.8794 97.7136 63.9287 96.9888 64.3002C96.0847 64.7653 95.4924 65.6719 95.0611 66.5942C94.0947 68.6673 94.2479 70.3352 94.5805 72.598Z" fill="#2F2E41"/>
<path d="M69.6638 181.92L128.572 182C128.654 182 128.732 181.967 128.79 181.909C128.848 181.851 128.881 181.773 128.881 181.691C128.881 181.609 128.848 181.53 128.79 181.472C128.732 181.414 128.654 181.381 128.572 181.381L69.6638 181.302C69.5817 181.302 69.5031 181.334 69.445 181.392C69.387 181.45 69.3545 181.529 69.3545 181.611C69.3545 181.693 69.387 181.772 69.445 181.83C69.5031 181.888 69.5817 181.92 69.6638 181.92Z" fill="#CACACA"/>
<path d="M48.3583 154.956C48.4669 154.21 47.6852 153.478 46.6123 153.322C45.5393 153.166 44.5815 153.644 44.4729 154.391C44.3643 155.137 45.1461 155.869 46.219 156.025C47.2919 156.181 48.2497 155.702 48.3583 154.956Z" fill="#E6E6E6"/>
<path d="M61.1326 153.71C61.2412 152.963 60.4595 152.232 59.3866 152.076C58.3136 151.92 57.3558 152.398 57.2472 153.144C57.1386 153.891 57.9204 154.622 58.9933 154.779C60.0662 154.935 61.024 154.456 61.1326 153.71Z" fill="#3F3D56"/>
<path d="M44.8603 144.614C44.9689 143.868 44.1872 143.136 43.1142 142.98C42.0413 142.824 41.0835 143.303 40.9749 144.049C40.8663 144.795 41.6481 145.527 42.721 145.683C43.7939 145.839 44.7517 145.361 44.8603 144.614Z" fill="#17586E"/>
<path d="M39.3095 140.378C39.3147 139.693 38.9325 139.134 38.4558 139.131C37.9792 139.127 37.5885 139.68 37.5834 140.365C37.5782 141.05 37.9604 141.609 38.4371 141.612C38.9137 141.616 39.3044 141.063 39.3095 140.378Z" fill="#E6E6E6"/>
<path d="M37.4271 132.488C37.4323 131.802 37.0501 131.244 36.5734 131.241C36.0968 131.237 35.7062 131.789 35.701 132.475C35.6958 133.16 36.078 133.718 36.5547 133.722C37.0313 133.725 37.422 133.173 37.4271 132.488Z" fill="#3F3D56"/>
<path d="M52.0651 146.374C52.0703 145.689 51.6881 145.131 51.2114 145.127C50.7348 145.123 50.3442 145.676 50.339 146.361C50.3338 147.046 50.716 147.605 51.1927 147.608C51.6693 147.612 52.06 147.059 52.0651 146.374Z" fill="#E6E6E6"/>
<path d="M45.892 149.456C45.8972 148.771 45.515 148.213 45.0383 148.209C44.5617 148.206 44.1711 148.758 44.1659 149.443C44.1607 150.129 44.5429 150.687 45.0196 150.691C45.4962 150.694 45.8869 150.142 45.892 149.456Z" fill="#17586E"/>
<path d="M54.4853 155.153C54.4904 154.468 54.1082 153.909 53.6316 153.906C53.1549 153.902 52.7643 154.455 52.7591 155.14C52.7539 155.825 53.1361 156.384 53.6128 156.387C54.0895 156.391 54.4801 155.838 54.4853 155.153Z" fill="#3F3D56"/>
<path d="M146.56 114.948C146.668 114.202 145.887 113.47 144.814 113.314C143.741 113.158 142.783 113.637 142.674 114.383C142.566 115.129 143.347 115.861 144.42 116.017C145.493 116.173 146.451 115.695 146.56 114.948Z" fill="#E6E6E6"/>
<path d="M159.334 113.702C159.443 112.955 158.661 112.224 157.588 112.068C156.515 111.911 155.557 112.39 155.449 113.136C155.34 113.883 156.122 114.614 157.195 114.77C158.268 114.927 159.225 114.448 159.334 113.702Z" fill="#3F3D56"/>
<path d="M143.061 104.606C143.17 103.86 142.388 103.128 141.315 102.972C140.242 102.816 139.285 103.295 139.176 104.041C139.067 104.788 139.849 105.519 140.922 105.675C141.995 105.831 142.953 105.353 143.061 104.606Z" fill="#17586E"/>
<path d="M137.511 100.37C137.516 99.6851 137.134 99.1267 136.657 99.1231C136.18 99.1195 135.79 99.672 135.785 100.357C135.779 101.042 136.162 101.601 136.638 101.604C137.115 101.608 137.506 101.055 137.511 100.37Z" fill="#E6E6E6"/>
<path d="M135.628 92.4799C135.634 91.7947 135.251 91.2363 134.775 91.2327C134.298 91.2291 133.907 91.7816 133.902 92.4668C133.897 93.152 134.279 93.7104 134.756 93.714C135.233 93.7177 135.623 93.1651 135.628 92.4799Z" fill="#3F3D56"/>
<path d="M150.266 106.366C150.272 105.681 149.889 105.123 149.413 105.119C148.936 105.116 148.545 105.668 148.54 106.353C148.535 107.039 148.917 107.597 149.394 107.601C149.871 107.604 150.261 107.052 150.266 106.366Z" fill="#E6E6E6"/>
<path d="M144.093 109.448C144.098 108.763 143.716 108.205 143.24 108.201C142.763 108.198 142.372 108.75 142.367 109.435C142.362 110.121 142.744 110.679 143.221 110.683C143.697 110.686 144.088 110.134 144.093 109.448Z" fill="#17586E"/>
<path d="M152.687 115.145C152.692 114.46 152.31 113.902 151.833 113.898C151.356 113.894 150.966 114.447 150.96 115.132C150.955 115.817 151.337 116.376 151.814 116.379C152.291 116.383 152.681 115.83 152.687 115.145Z" fill="#3F3D56"/>
<path d="M99.0177 40.9075C99.1263 40.1611 98.3445 39.4295 97.2716 39.2734C96.1987 39.1173 95.2409 39.5958 95.1323 40.3422C95.0237 41.0885 95.8054 41.8202 96.8783 41.9763C97.9513 42.1324 98.9091 41.6538 99.0177 40.9075Z" fill="white"/>
<path d="M111.792 39.6611C111.901 38.9148 111.119 38.1832 110.046 38.027C108.973 37.8709 108.015 38.3494 107.907 39.0958C107.798 39.8422 108.58 40.5738 109.653 40.7299C110.726 40.886 111.683 40.4075 111.792 39.6611Z" fill="#3F3D56"/>
<path d="M95.5197 30.5657C95.6283 29.8193 94.8465 29.0877 93.7736 28.9316C92.7007 28.7755 91.7429 29.254 91.6343 30.0004C91.5257 30.7467 92.3074 31.4784 93.3804 31.6345C94.4533 31.7906 95.4111 31.3121 95.5197 30.5657Z" fill="#17586E"/>
<path d="M89.9689 26.3295C89.9741 25.6443 89.5919 25.0859 89.1152 25.0823C88.6386 25.0787 88.248 25.6312 88.2428 26.3164C88.2376 27.0017 88.6198 27.5601 89.0965 27.5637C89.5731 27.5673 89.9638 27.0147 89.9689 26.3295Z" fill="#E6E6E6"/>
<path d="M88.0866 18.4394C88.0917 17.7542 87.7095 17.1958 87.2329 17.1922C86.7562 17.1885 86.3656 17.7411 86.3604 18.4263C86.3552 19.1115 86.7374 19.6699 87.2141 19.6735C87.6908 19.6771 88.0814 19.1246 88.0866 18.4394Z" fill="#3F3D56"/>
<path d="M102.725 32.3256C102.73 31.6404 102.348 31.082 101.871 31.0784C101.394 31.0748 101.004 31.6273 100.998 32.3125C100.993 32.9977 101.375 33.5561 101.852 33.5597C102.329 33.5634 102.719 33.0108 102.725 32.3256Z" fill="#E6E6E6"/>
<path d="M96.5515 35.4079C96.5566 34.7227 96.1744 34.1643 95.6978 34.1607C95.2211 34.1571 94.8305 34.7096 94.8253 35.3948C94.8201 36.08 95.2023 36.6384 95.679 36.642C96.1557 36.6456 96.5463 36.0931 96.5515 35.4079Z" fill="#17586E"/>
<path d="M105.145 41.1044C105.15 40.4192 104.768 39.8608 104.291 39.8572C103.814 39.8536 103.424 40.4061 103.418 41.0913C103.413 41.7766 103.796 42.335 104.272 42.3386C104.749 42.3422 105.139 41.7896 105.145 41.1044Z" fill="#3F3D56"/>
</g>
<defs>
<clipPath id="clip0_101_1518">
<rect width="159.344" height="182" fill="white"/>
</clipPath>
</defs>
</svg>
